<svg width="194" height="50" viewBox="0 0 194 50" fill="none" xmlns="http://www.w3.org/2000/svg">
<g clip-path="url(#clip0_8_8)">
<path d="M40.4136 25.9585C44.3016 35.6065 47.1816 48.9985 35.3736 48.6385C27.2375 48.4225 24.8616 38.1265 29.4696 27.9745C30.4776 25.8145 31.2696 21.7105 30.6936 18.2545C30.3336 17.3905 29.3976 17.3905 28.8216 18.4705C26.9496 22.0705 24.5736 32.9425 22.1256 32.9425C19.3176 33.0145 16.8696 22.0705 15.2856 18.6145C14.8536 17.6065 13.4136 17.6065 13.0536 18.5425C12.5496 21.9265 13.3416 25.8865 14.2776 27.9745C18.8856 38.1265 16.5816 48.4225 8.44555 48.6385C-3.36245 48.9985 -0.482449 35.6065 3.33355 25.9585C4.12555 24.0865 5.78155 21.4225 4.41355 16.8865C4.12555 15.9505 2.68555 13.2865 2.54155 12.3505C1.38955 5.43847 4.48555 -0.537532 10.1016 0.0384691C21.4056 -0.249531 19.4616 21.4225 22.0536 21.4225C24.0695 21.4225 24.4296 7.02247 30.5496 1.76647C31.3416 0.758469 32.3496 0.110468 33.7176 0.0384691C39.2616 -0.537532 42.3576 5.43847 41.2056 12.3505C41.0616 13.2865 39.6216 15.9505 39.3336 16.8865C38.0376 21.4225 39.6936 24.0865 40.4136 25.9585Z" fill="black"></path>
<path d="M75.4219 25.6705C74.0539 28.1905 73.5499 30.9265 74.5579 32.7985C78.2299 39.7825 77.1499 48.1345 70.4539 48.3505C67.0699 48.4225 65.1979 47.3425 64.3339 45.6865C62.3899 46.9105 60.3019 47.7025 58.5019 48.0625C58.4299 48.0625 58.4299 48.0625 58.3579 48.0625C51.5899 49.5745 45.1099 40.5025 49.3579 32.7265C50.0779 31.4305 50.7259 29.4865 49.6459 26.2465C49.4299 25.5985 48.9259 23.8705 48.8539 23.2945C47.9179 18.4705 50.5099 14.3665 55.0459 14.6545C59.7259 15.0145 60.2299 22.0705 58.2859 25.7425C57.6379 26.9665 57.2059 28.1905 56.9899 29.4145C57.0619 29.4145 57.0619 29.3425 57.0619 29.4145C57.4219 30.9265 59.7259 34.3825 61.8859 34.3825C64.3339 34.4545 65.7739 33.5905 66.7099 32.0785C67.2859 30.8545 67.7179 28.9825 66.7819 26.1745C66.5659 25.5265 66.0619 23.7985 65.9179 23.2225C65.0539 18.3985 67.6459 14.2945 72.1819 14.5825C76.7899 14.9425 77.3659 21.9985 75.4219 25.6705Z" fill="black"></path>
<path d="M93.513 14.1505C107.193 14.5825 108.489 21.8545 108.561 24.0145C108.705 28.1185 100.857 27.8305 100.857 24.3745C100.857 20.9905 97.689 20.2705 94.161 20.5585C90.417 20.9185 83.505 25.8145 99.705 27.6145C112.449 29.0545 108.921 48.3505 94.809 48.3505C81.993 48.3505 79.689 41.6545 79.761 34.7425C79.761 29.8465 86.673 28.8385 88.329 32.8705C89.049 34.5265 92.721 34.8145 95.313 34.4545C100.425 33.8785 98.697 30.3505 92.649 29.6305C75.153 27.4705 81.705 13.7185 93.513 14.1505Z" fill="black"></path>
<path d="M141.806 36.6865C144.758 42.7345 144.614 49.2865 137.414 49.0705C131.654 48.9265 130.574 43.1665 133.31 38.8465C134.03 37.6945 134.534 36.5425 134.462 35.4625C134.39 34.1665 134.606 34.0945 133.814 32.2225C133.814 32.2225 133.742 32.1505 133.742 32.0785C131.942 28.5505 127.766 29.9185 125.894 33.8065C127.262 41.5105 125.246 48.4945 119.126 48.6385C107.318 48.9985 110.198 35.6065 114.086 25.9585C114.806 24.0865 116.462 21.4225 115.094 16.8865C114.806 15.9505 113.438 13.2145 113.294 12.3505C111.278 4.35847 114.302 0.0384691 119.918 0.0384691C127.694 0.0384691 126.47 11.4865 124.094 16.6705C122.654 19.9105 122.366 22.7185 123.158 25.1665C126.326 21.9265 129.998 17.6785 130.718 14.8705C134.246 1.33447 151.454 15.7345 136.982 21.1345C135.758 21.6385 133.598 22.4305 131.582 23.5825C133.958 23.1505 136.478 23.2225 138.926 23.7985C139.142 23.8705 139.43 23.9425 139.646 24.0145C142.238 24.8065 144.398 28.6225 142.67 31.4305C141.446 33.5185 141.158 35.2465 141.806 36.6865Z" fill="black"></path>
<path d="M161.154 15.8065C159.57 19.4065 158.994 23.4385 160.218 26.1025C164.826 36.2545 163.962 48.4225 155.826 48.6385C144.018 48.9985 146.898 35.6065 150.786 25.9585C151.506 24.0865 153.162 21.4225 151.794 16.8865C151.506 15.9505 150.138 13.2865 149.994 12.3505C148.842 5.43847 151.938 -0.537532 157.482 0.0384691C163.17 0.542471 163.53 10.6225 161.154 15.8065Z" fill="black"></path>
<path d="M193.528 32.7985C194.032 37.1185 192.16 48.5665 180.424 48.7105C159.616 48.9265 164.224 14.9425 180.28 14.9425C188.344 14.9425 191.8 18.3265 191.872 22.6465C191.944 23.6545 191.8 24.4465 191.584 25.0945C191.44 25.8145 191.08 26.6785 190.432 27.7585C188.272 31.2145 179.344 32.7985 174.952 30.3505C174.88 34.2385 176.824 37.9105 181.576 37.9105C183.736 37.9105 186.904 36.6145 186.904 33.3025C187.048 29.4145 193.096 28.6945 193.528 32.7985ZM180.496 21.4225C178.696 21.7825 177.256 23.2225 176.248 25.0945C177.328 25.6705 184.312 26.8225 186.112 24.3745C186.04 24.3025 186.04 24.1585 186.04 24.0865C186.112 21.3505 182.728 20.9185 180.496 21.4225Z" fill="black"></path>
</g>
<defs>
<clipPath id="clip0_8_8">
<rect width="194" height="50" fill="white"></rect>
</clipPath>
</defs>
</svg>